<?xml version="1.0" encoding="UTF-8" standalone="no"?>
<!DOCTYPE svg PUBLIC "-//W3C//DTD SVG 1.1//EN" "http://www.w3.org/Graphics/SVG/1.1/DTD/svg11.dtd">
<svg xmlns="http://www.w3.org/2000/svg" version="1.1" viewBox="0.00 0.00 240.00 240.00">
<g stroke-width="2.00" fill="none" stroke-linecap="butt">
<path stroke="#808080" vector-effect="non-scaling-stroke" d="
  M 228.53 119.59
  A 108.37 108.37 0.0 0 0 120.16 11.22
  A 108.37 108.37 0.0 0 0 11.79 119.59
  A 108.37 108.37 0.0 0 0 120.16 227.96
  A 108.37 108.37 0.0 0 0 228.53 119.59"
/>
<path stroke="#7d680d" vector-effect="non-scaling-stroke" d="
  M 114.96 31.45
  L 115.29 36.83
  Q 115.40 38.73 113.21 38.63
  L 113.13 38.63
  Q 111.17 38.55 111.01 36.73
  L 109.62 21.54
  A 2.24 2.22 73.6 0 1 110.79 19.37
  Q 112.52 18.45 113.67 20.35
  Q 114.03 20.94 114.15 23.41
  Q 114.17 23.95 114.72 23.92
  L 117.50 23.74
  Q 118.01 23.71 118.01 23.20
  C 118.01 18.01 115.42 13.83 109.62 15.62
  Q 105.30 16.95 105.52 21.32
  Q 105.79 26.74 106.96 37.05
  Q 107.58 42.46 112.98 42.52
  C 117.47 42.57 119.43 39.71 119.15 35.32
  Q 118.99 32.94 118.43 27.21
  Q 118.37 26.66 117.82 26.69
  L 113.04 27.00
  A 0.64 0.64 0.0 0 0 112.44 27.68
  L 112.59 30.09
  A 0.85 0.83 -3.4 0 0 113.49 30.87
  L 114.25 30.82
  Q 114.92 30.78 114.96 31.45"
/>
<path stroke="#7d680d" vector-effect="non-scaling-stroke" d="
  M 139.69 17.44
  L 133.56 42.05
  A 0.52 0.52 0.0 0 0 133.94 42.68
  L 140.00 44.19
  A 5.86 5.75 -76.0 0 0 147.00 39.90
  L 150.55 25.65
  A 5.86 5.75 -76.0 0 0 146.39 18.58
  L 140.32 17.06
  A 0.52 0.52 0.0 0 0 139.69 17.44"
/>
<path stroke="#7d680d" vector-effect="non-scaling-stroke" d="
  M 78.30 34.49
  Q 77.37 32.49 78.77 34.19
  L 89.70 47.49
  Q 90.09 47.96 90.65 47.70
  L 93.54 46.36
  Q 94.00 46.14 93.79 45.69
  L 83.14 22.86
  A 0.68 0.67 -24.7 0 0 82.24 22.53
  L 80.03 23.55
  Q 79.42 23.84 79.71 24.46
  L 85.57 36.74
  Q 85.60 36.80 85.58 36.86
  Q 85.54 37.02 85.45 37.09
  Q 85.33 37.18 85.24 37.06
  L 76.16 26.03
  Q 75.78 25.55 75.22 25.81
  L 71.60 27.50
  Q 71.03 27.77 71.29 28.34
  L 81.92 51.13
  Q 82.16 51.65 82.68 51.41
  L 85.10 50.28
  Q 85.57 50.06 85.35 49.60
  L 78.30 34.49"
/>
<path stroke="#7d680d" vector-effect="non-scaling-stroke" d="
  M 179.9415 40.4819
  A 5.70 5.70 0.0 0 0 178.3482 32.5799
  L 177.3820 31.9380
  A 5.70 5.70 0.0 0 0 169.4800 33.5313
  L 160.7585 46.6581
  A 5.70 5.70 0.0 0 0 162.3518 54.5601
  L 163.3180 55.2020
  A 5.70 5.70 0.0 0 0 171.2200 53.6087
  L 179.9415 40.4819"
/>
<path stroke="#7d680d" vector-effect="non-scaling-stroke" d="
  M 53.0495 41.0907
  A 0.41 0.41 0.0 0 0 52.4703 41.0634
  L 50.0295 43.2843
  A 0.41 0.41 0.0 0 0 50.0022 43.8635
  L 67.1505 62.7093
  A 0.41 0.41 0.0 0 0 67.7297 62.7366
  L 70.1705 60.5157
  A 0.41 0.41 0.0 0 0 70.1978 59.9365
  L 53.0495 41.0907"
/>
<path stroke="#7d680d" vector-effect="non-scaling-stroke" d="
  M 93.35 55.89
  L 85.72 66.81
  A 2.30 2.30 0.0 0 1 84.49 67.70
  L 70.21 71.92
  Q 69.70 72.07 69.40 72.50
  L 66.74 76.31
  A 0.70 0.69 -64.7 0 1 66.00 76.58
  L 64.31 76.16
  A 0.82 0.75 23.7 0 0 63.46 76.45
  L 60.14 81.20
  A 0.44 0.43 -79.5 0 0 60.60 81.88
  Q 65.93 80.52 67.68 80.14
  C 71.50 79.32 74.90 79.92 78.44 79.14
  Q 85.02 77.68 94.22 76.17
  Q 96.34 75.82 98.44 76.11
  Q 102.03 76.60 102.66 76.74
  Q 103.17 76.85 103.51 77.17
  Q 105.30 78.84 104.75 81.37
  Q 104.60 82.06 105.21 81.69
  Q 106.18 81.10 106.51 80.54
  A 0.91 0.91 0.0 0 0 106.55 79.68
  L 104.84 76.00
  Q 104.58 75.46 105.03 75.05
  L 116.08 64.87
  A 1.26 1.24 30.0 0 1 117.23 64.57
  Q 120.89 65.43 124.83 66.46
  Q 126.83 66.98 130.22 66.22
  Q 140.79 63.86 157.20 60.35
  Q 158.55 60.06 157.36 59.35
  Q 125.75 40.57 91.32 54.45
  Q 91.03 54.57 90.96 54.87
  L 90.84 55.35
  A 0.20 0.20 0.0 0 0 91.12 55.58
  Q 92.29 55.01 93.16 55.31
  Q 93.65 55.47 93.35 55.89"
/>
<path stroke="#7d680d" vector-effect="non-scaling-stroke" d="
  M 183.23 73.94
  Q 183.70 74.61 184.01 75.02
  Q 184.29 75.37 184.69 75.17
  L 200.50 67.17
  Q 200.68 67.08 200.80 67.22
  L 200.80 67.23
  Q 200.94 67.39 200.78 67.50
  L 186.51 77.57
  Q 186.00 77.93 186.36 78.43
  L 187.85 80.49
  A 0.67 0.67 0.0 0 0 188.79 80.65
  L 209.11 66.00
  Q 209.59 65.65 209.24 65.17
  L 206.52 61.39
  Q 206.16 60.90 205.62 61.18
  Q 190.40 69.27 190.21 69.00
  Q 190.02 68.74 202.72 57.08
  Q 203.16 56.66 202.82 56.16
  L 200.16 52.34
  Q 199.83 51.85 199.34 52.18
  L 178.76 66.47
  A 0.67 0.67 0.0 0 0 178.59 67.40
  L 180.04 69.50
  Q 180.39 70.00 180.90 69.64
  L 195.15 59.54
  Q 195.31 59.42 195.41 59.61
  L 195.42 59.61
  Q 195.51 59.77 195.37 59.91
  L 182.56 72.16
  Q 182.24 72.47 182.48 72.84
  Q 182.76 73.27 183.23 73.94"
/>
<path stroke="#7d680d" vector-effect="non-scaling-stroke" d="
  M 45.03 74.24
  L 55.34 76.81
  Q 55.89 76.95 56.17 76.46
  L 57.70 73.81
  Q 58.08 73.14 57.33 72.97
  Q 52.28 71.82 41.75 69.00
  Q 40.80 68.75 35.88 60.40
  Q 35.46 59.68 35.04 60.40
  L 33.53 63.03
  Q 33.25 63.51 33.56 63.96
  L 39.31 72.38
  Q 40.06 73.47 38.91 72.81
  L 31.10 68.30
  Q 30.53 67.97 30.19 68.55
  L 28.72 71.10
  A 0.61 0.61 0.0 0 0 28.94 71.93
  L 50.79 84.54
  Q 51.25 84.81 51.52 84.35
  L 52.94 81.88
  A 0.65 0.65 0.0 0 0 52.70 80.99
  Q 47.83 78.24 46.21 77.08
  Q 45.42 76.52 44.65 74.69
  Q 44.38 74.07 45.03 74.24"
/>
<path stroke="#7d680d" vector-effect="non-scaling-stroke" d="
  M 111.83 78.31
  Q 110.53 79.54 109.40 80.86
  Q 108.83 81.53 109.68 81.33
  L 118.54 79.27
  Q 120.00 78.94 119.80 77.58
  L 118.95 71.77
  Q 118.73 70.27 117.54 71.01
  L 114.15 73.12
  Q 113.65 73.42 113.53 73.91
  C 113.06 75.71 112.88 77.33 111.83 78.31"
/>
<path stroke="#808080" vector-effect="non-scaling-stroke" d="
  M 112.42 131.63
  Q 111.17 139.32 118.12 141.08
  Q 118.60 141.20 119.07 141.03
  Q 120.67 140.44 121.47 139.97
  Q 128.40 135.99 134.15 130.61
  A 0.36 0.36 0.0 0 1 134.76 130.85
  Q 134.96 133.52 135.73 135.86
  Q 136.67 138.70 140.67 141.01
  Q 141.10 141.26 141.58 141.14
  Q 146.62 139.80 147.54 139.31
  Q 157.15 134.14 156.22 123.13
  A 1.04 1.03 79.3 0 1 156.95 122.05
  L 164.48 119.83
  Q 165.48 119.54 164.90 120.40
  Q 161.33 125.78 161.28 132.22
  Q 161.25 136.66 164.65 139.50
  C 167.33 141.74 169.70 142.80 173.06 141.29
  Q 177.40 139.34 183.09 135.52
  Q 186.28 133.37 189.35 130.34
  Q 191.73 127.97 195.28 124.97
  Q 196.31 124.09 195.39 123.09
  Q 194.69 122.33 193.07 122.84
  A 1.16 1.13 12.2 0 0 192.59 123.14
  Q 188.71 127.13 187.78 128.02
  C 183.29 132.33 175.28 136.98 168.90 135.51
  Q 168.30 135.37 168.26 134.75
  L 168.08 131.96
  Q 168.05 131.47 168.51 131.32
  C 170.98 130.48 174.27 128.77 177.29 127.44
  Q 183.48 124.71 184.53 117.60
  Q 185.25 112.82 182.68 110.22
  Q 182.27 109.81 181.69 109.74
  Q 178.68 109.38 178.03 109.61
  Q 172.10 111.70 168.49 116.57
  A 1.90 1.04 -62.8 0 1 167.27 117.40
  L 154.89 117.73
  Q 154.07 117.75 153.84 117.92
  Q 151.47 119.74 151.38 121.95
  Q 151.28 124.46 150.02 126.79
  C 148.80 129.05 145.88 134.16 143.16 134.60
  A 2.21 2.21 0.0 0 1 140.69 133.07
  Q 139.95 130.68 139.96 126.34
  Q 139.96 124.24 141.58 122.15
  Q 146.29 116.08 149.06 112.99
  C 150.52 111.37 151.06 110.15 152.37 107.76
  Q 153.35 105.97 154.85 103.86
  Q 159.85 96.81 163.84 88.21
  Q 164.90 85.93 164.92 84.48
  C 164.96 81.43 164.74 78.88 161.46 78.04
  C 159.83 77.62 157.87 79.66 156.92 80.66
  Q 144.30 94.07 137.84 111.15
  C 135.50 117.34 133.77 120.93 134.55 126.08
  Q 134.62 126.58 134.26 126.93
  Q 131.60 129.48 128.27 131.00
  Q 121.81 133.95 121.26 134.21
  Q 120.97 134.34 118.56 134.29
  Q 118.03 134.28 118.10 133.76
  Q 118.30 132.36 119.04 130.79
  Q 121.11 126.42 126.32 116.13
  Q 126.95 114.88 127.10 113.77
  A 1.90 1.89 -1.5 0 0 124.87 111.66
  L 121.38 112.30
  Q 120.39 112.49 119.91 113.52
  Q 117.13 119.51 115.76 121.80
  Q 114.45 123.99 113.50 124.52
  Q 108.79 127.13 106.29 130.51
  Q 104.92 132.36 103.98 132.72
  Q 102.77 133.19 101.04 134.19
  A 0.75 0.75 0.0 0 1 100.15 134.09
  C 98.32 132.43 97.77 130.15 99.48 128.01
  Q 101.07 126.01 102.86 122.67
  A 1.18 1.14 -43.0 0 0 102.91 121.66
  Q 101.11 117.41 97.42 113.80
  Q 96.96 113.36 97.05 112.73
  L 97.56 109.11
  A 0.78 0.78 0.0 0 0 96.81 108.22
  Q 93.72 108.16 92.18 110.15
  Q 88.72 114.62 86.32 119.33
  Q 84.73 122.47 77.77 131.03
  Q 76.51 132.58 76.17 134.55
  Q 75.72 137.20 76.62 139.42
  Q 77.43 141.38 78.50 139.55
  Q 80.85 135.53 84.17 131.00
  Q 84.20 130.95 88.14 124.89
  Q 90.91 120.62 94.20 118.01
  A 0.46 0.46 0.0 0 1 94.94 118.33
  Q 95.12 119.92 96.01 121.29
  Q 96.28 121.70 96.12 122.18
  C 95.12 125.09 92.98 128.31 92.39 130.91
  Q 90.95 137.23 97.08 140.82
  Q 97.51 141.07 98.01 140.95
  Q 103.06 139.71 106.55 135.75
  Q 108.94 133.02 111.91 131.28
  Q 112.53 130.91 112.42 131.63"
/>
<path stroke="#808080" vector-effect="non-scaling-stroke" d="
  M 75.43 88.92
  L 53.66 135.64
  Q 53.45 136.11 53.67 136.57
  Q 54.71 138.76 56.66 140.22
  C 58.08 141.29 59.88 140.55 60.34 138.82
  C 60.90 136.76 61.78 135.51 63.58 131.87
  Q 64.98 129.04 65.92 126.28
  Q 68.00 120.18 68.88 118.38
  Q 73.30 109.31 74.16 106.97
  Q 75.58 103.11 76.28 101.79
  Q 77.88 98.73 78.63 96.71
  C 79.80 93.55 82.14 90.65 84.09 87.41
  Q 84.35 86.97 84.86 86.86
  Q 88.33 86.14 92.79 84.91
  C 95.02 84.30 97.68 85.34 99.48 84.08
  Q 101.35 82.76 102.31 80.46
  A 0.77 0.77 0.0 0 0 101.79 79.42
  Q 97.91 78.43 94.14 78.88
  Q 91.17 79.22 78.38 81.93
  C 75.63 82.52 71.81 82.00 68.91 82.60
  Q 63.68 83.70 58.96 85.26
  Q 56.68 86.01 58.31 87.78
  L 59.76 89.36
  Q 61.07 90.77 62.84 90.03
  C 64.78 89.21 66.89 88.28 69.09 88.38
  Q 72.17 88.51 75.08 88.39
  A 0.37 0.37 0.0 0 1 75.43 88.92"
/>
<path stroke="#7d680d" vector-effect="non-scaling-stroke" d="
  M 90.42 94.17
  L 97.96 87.97
  Q 98.44 87.57 97.82 87.48
  C 94.34 87.00 91.15 87.98 86.49 89.39
  Q 86.01 89.54 85.73 89.94
  C 84.30 92.01 82.40 94.77 81.19 97.53
  Q 77.57 105.81 77.52 105.94
  Q 75.38 111.34 72.29 117.53
  C 69.39 123.35 68.48 128.56 65.37 134.09
  Q 63.72 137.02 62.42 140.91
  Q 62.06 141.98 59.46 143.31
  Q 59.01 143.54 59.40 143.86
  L 64.94 148.34
  A 1.01 1.01 0.0 0 1 65.24 149.50
  L 61.37 159.17
  A 0.86 0.84 -52.2 0 0 61.46 159.97
  C 72.81 176.03 89.49 186.65 108.80 189.68
  C 126.01 192.38 143.83 188.67 158.43 179.12
  Q 181.84 163.79 189.07 135.33
  Q 189.34 134.26 188.46 134.93
  Q 181.07 140.47 173.92 143.83
  Q 169.33 145.98 164.44 142.69
  Q 158.94 138.99 158.67 132.74
  Q 158.57 130.51 157.57 132.51
  Q 152.90 141.83 142.43 143.68
  C 140.94 143.94 140.12 143.66 138.91 143.13
  Q 138.40 142.91 138.10 143.37
  C 136.55 145.71 135.23 147.28 135.09 149.82
  Q 134.80 155.20 134.61 160.07
  A 2.46 2.45 62.1 0 1 134.26 161.22
  L 125.34 175.91
  Q 125.09 176.32 124.60 176.44
  L 115.62 178.61
  Q 115.06 178.75 114.85 178.19
  Q 112.69 172.22 109.79 163.67
  Q 108.67 160.35 108.53 155.72
  Q 108.34 149.78 107.13 139.71
  A 0.35 0.35 0.0 0 0 106.57 139.48
  C 103.87 141.62 98.83 144.81 95.47 142.93
  Q 91.51 140.71 89.96 136.44
  Q 89.80 136.00 89.43 135.72
  Q 87.80 134.46 87.55 132.95
  Q 87.25 131.12 86.17 132.63
  Q 83.30 136.66 80.56 141.24
  C 79.60 142.86 78.48 143.59 76.71 143.09
  C 73.54 142.19 73.22 137.28 73.42 134.31
  Q 73.57 132.04 76.00 129.05
  Q 79.09 125.24 82.27 120.78
  Q 82.89 119.92 82.44 118.96
  L 81.59 117.14
  Q 81.31 116.54 81.73 116.03
  L 93.00 102.11
  Q 93.34 101.70 93.11 101.22
  L 90.22 95.02
  Q 89.99 94.52 90.42 94.17"
/>
<path stroke="#7d680d" vector-effect="non-scaling-stroke" d="
  M 125.95 89.43
  L 123.87 94.62
  Q 123.67 95.12 124.20 95.17
  Q 125.14 95.26 132.66 95.88
  Q 133.89 95.98 134.26 95.54
  Q 134.87 94.81 135.16 93.98
  Q 135.37 93.41 134.82 93.15
  L 126.43 89.24
  Q 126.09 89.08 125.95 89.43"
/>
<path stroke="#7d680d" vector-effect="non-scaling-stroke" d="
  M 64.87 92.11
  C 61.11 93.78 58.67 92.78 56.43 89.68
  A 0.58 0.58 0.0 0 0 55.44 89.78
  Q 45.52 111.28 50.43 134.43
  Q 50.63 135.37 51.07 134.52
  C 51.77 133.14 52.88 131.83 53.40 130.35
  Q 55.57 124.26 59.16 117.98
  C 60.03 116.45 60.15 114.42 61.11 112.72
  Q 66.74 102.76 70.93 91.72
  Q 71.14 91.19 70.57 91.13
  Q 67.75 90.82 64.87 92.11"
/>
<path stroke="#7d680d" vector-effect="non-scaling-stroke" d="
  M 111.41 100.37
  L 111.52 99.59
  Q 111.61 98.93 111.06 98.54
  L 104.61 94.03
  Q 104.09 93.67 103.63 94.10
  L 96.50 100.66
  Q 96.11 101.02 96.64 100.99
  L 105.22 100.45
  Q 105.69 100.42 105.89 100.84
  L 106.90 103.02
  Q 107.14 103.53 107.69 103.60
  L 120.78 105.46
  Q 121.66 105.58 121.64 104.70
  Q 121.61 102.55 122.53 100.55
  Q 123.00 99.53 121.71 99.89
  Q 120.85 100.12 119.26 99.77
  Q 118.75 99.65 118.41 99.25
  Q 114.94 95.14 114.57 94.77
  Q 113.82 94.03 113.94 94.83
  Q 114.02 95.47 114.60 96.71
  A 1.68 1.67 -34.0 0 1 114.22 98.64
  L 112.00 100.68
  A 0.35 0.35 0.0 0 1 111.41 100.37"
/>
<path stroke="#808080" vector-effect="non-scaling-stroke" d="
  M 131.29 103.33
  C 131.07 102.14 131.35 101.03 131.44 100.01
  A 1.10 1.10 0.0 0 0 130.17 98.82
  Q 125.96 99.51 124.75 102.16
  C 123.58 104.73 124.75 107.01 127.53 107.37
  A 1.30 1.29 -58.8 0 0 128.46 107.14
  Q 129.66 106.27 130.64 105.40
  Q 131.14 104.96 131.26 104.48
  Q 131.40 103.93 131.29 103.33"
/>
<path stroke="#7d680d" vector-effect="non-scaling-stroke" d="
  M 215.04 115.90
  A 4.36 4.36 0.0 0 0 210.68 111.54
  A 4.36 4.36 0.0 0 0 206.32 115.90
  A 4.36 4.36 0.0 0 0 210.68 120.26
  A 4.36 4.36 0.0 0 0 215.04 115.90"
/>
<path stroke="#7d680d" vector-effect="non-scaling-stroke" d="
  M 155.06 114.84
  Q 155.51 114.78 155.16 114.50
  Q 154.74 114.17 153.73 114.22
  Q 153.50 114.23 153.43 114.43
  Q 153.32 114.76 153.66 114.83
  Q 154.22 114.96 155.06 114.84"
/>
<path stroke="#7d680d" vector-effect="non-scaling-stroke" d="
  M 34.85 121.09
  A 4.37 4.37 0.0 0 0 30.48 116.72
  A 4.37 4.37 0.0 0 0 26.11 121.09
  A 4.37 4.37 0.0 0 0 30.48 125.46
  A 4.37 4.37 0.0 0 0 34.85 121.09"
/>
<path stroke="#7d680d" vector-effect="non-scaling-stroke" d="
  M 183.28 126.54
  C 180.27 129.80 176.34 130.33 173.22 132.50
  Q 172.74 132.83 173.32 132.85
  Q 174.47 132.89 176.55 132.04
  Q 183.33 129.25 187.95 124.04
  Q 188.28 123.66 188.07 123.20
  L 187.05 121.01
  A 0.31 0.31 0.0 0 0 186.47 121.04
  Q 185.47 124.16 183.28 126.54"
/>
<path stroke="#7d680d" vector-effect="non-scaling-stroke" d="
  M 145.85 123.81
  C 143.95 125.05 141.95 125.55 142.77 128.47
  A 1.54 1.54 0.0 0 0 145.45 129.02
  Q 147.54 126.42 148.77 122.70
  A 0.29 0.29 0.0 0 0 148.37 122.35
  Q 147.31 122.87 145.85 123.81"
/>
<path stroke="#7d680d" vector-effect="non-scaling-stroke" d="
  M 159.01 127.03
  Q 159.09 127.32 159.21 127.04
  Q 159.71 125.91 159.67 124.54
  Q 159.66 124.32 159.43 124.33
  Q 159.29 124.33 159.18 124.37
  Q 159.02 124.43 158.98 124.69
  Q 158.79 126.14 159.01 127.03"
/>
<path stroke="#7d680d" vector-effect="non-scaling-stroke" d="
  M 205.24 170.00
  Q 203.86 169.77 201.73 168.28
  Q 201.11 167.85 200.73 168.51
  L 199.44 170.75
  Q 199.12 171.30 199.64 171.67
  C 201.75 173.19 205.38 174.95 207.72 173.42
  C 211.79 170.76 212.87 165.22 208.08 162.43
  Q 202.80 159.36 197.50 156.31
  Q 193.72 154.13 192.07 153.95
  Q 188.35 153.54 186.36 157.66
  C 183.86 162.81 188.17 165.34 192.02 167.25
  Q 192.58 167.52 192.89 166.98
  L 194.18 164.74
  Q 194.51 164.17 193.95 163.83
  L 190.54 161.75
  Q 188.92 160.76 190.05 159.06
  Q 190.07 159.03 190.09 158.99
  Q 191.12 157.41 192.85 158.40
  Q 198.46 161.60 205.67 165.85
  Q 207.87 167.15 206.86 169.17
  A 1.52 1.52 0.0 0 1 205.24 170.00"
/>
<path stroke="#7d680d" vector-effect="non-scaling-stroke" d="
  M 55.45 166.36
  A 0.46 0.46 0.0 0 1 55.35 167.00
  L 49.53 171.18
  A 0.46 0.46 0.0 0 1 48.89 171.08
  L 46.09 167.18
  A 0.46 0.46 0.0 0 0 45.45 167.08
  L 43.15 168.73
  A 0.46 0.46 0.0 0 0 43.05 169.37
  L 45.87 173.29
  A 0.46 0.46 0.0 0 1 45.77 173.93
  L 40.89 177.44
  A 0.46 0.46 0.0 0 1 40.25 177.34
  L 36.55 172.19
  A 0.46 0.46 0.0 0 0 35.91 172.09
  L 33.56 173.77
  A 0.46 0.46 0.0 0 0 33.46 174.41
  L 39.57 182.90
  A 0.46 0.46 0.0 0 0 40.21 183.00
  L 60.85 168.13
  A 0.46 0.46 0.0 0 0 60.95 167.49
  L 54.84 159.00
  A 0.46 0.46 0.0 0 0 54.20 158.90
  L 51.85 160.59
  A 0.46 0.46 0.0 0 0 51.75 161.23
  L 55.45 166.36"
/>
<path stroke="#7d680d" vector-effect="non-scaling-stroke" d="
  M 170.55 176.49
  C 167.77 178.89 167.30 182.21 169.74 185.04
  Q 182.47 199.76 183.00 200.38
  A 0.63 0.59 48.7 0 0 183.85 200.46
  L 186.05 198.56
  Q 186.50 198.17 186.12 197.73
  Q 183.09 194.25 173.45 183.06
  Q 171.48 180.76 173.06 179.40
  Q 174.63 178.03 176.62 180.32
  Q 186.29 191.48 189.30 194.99
  Q 189.68 195.43 190.13 195.04
  L 192.33 193.14
  A 0.63 0.59 49.6 0 0 192.37 192.28
  Q 191.83 191.67 179.12 176.93
  C 176.68 174.11 173.32 174.10 170.55 176.49"
/>
<path stroke="#7d680d" vector-effect="non-scaling-stroke" d="
  M 65.05 190.74
  Q 63.06 190.61 61.41 192.66
  C 59.01 195.65 56.65 199.23 60.12 202.16
  Q 62.84 204.46 66.06 206.50
  A 0.46 0.45 33.9 0 0 66.68 206.38
  L 81.26 185.52
  Q 81.52 185.16 81.15 184.90
  L 78.48 183.03
  Q 78.13 182.79 77.89 183.14
  L 72.11 191.41
  Q 71.43 192.37 70.64 191.50
  L 69.72 190.50
  A 1.95 1.94 41.1 0 1 69.55 188.07
  L 74.47 181.03
  A 0.62 0.62 0.0 0 0 74.32 180.16
  L 71.67 178.31
  Q 71.26 178.03 71.00 178.45
  Q 68.73 182.18 65.68 186.48
  Q 65.07 187.34 65.49 190.28
  Q 65.56 190.77 65.05 190.74"
/>
<path stroke="#7d680d" vector-effect="non-scaling-stroke" d="
  M 144.23 192.08
  A 0.60 0.60 0.0 0 0 143.89 192.86
  L 144.86 195.26
  A 0.60 0.60 0.0 0 0 145.64 195.60
  L 150.90 193.47
  A 0.60 0.60 0.0 0 1 151.68 193.81
  L 159.67 213.61
  A 0.60 0.60 0.0 0 0 160.45 213.95
  L 163.18 212.84
  A 0.60 0.60 0.0 0 0 163.52 212.06
  L 154.12 188.74
  A 0.60 0.60 0.0 0 0 153.34 188.40
  L 144.23 192.08"
/>
<path stroke="#7d680d" vector-effect="non-scaling-stroke" d="
  M 100.35 192.41
  C 96.82 191.44 93.80 192.90 92.82 196.49
  Q 87.69 215.22 87.47 216.00
  A 0.62 0.59 -75.1 0 0 87.88 216.75
  L 90.68 217.52
  Q 91.25 217.68 91.40 217.12
  Q 92.60 212.67 96.52 198.47
  Q 97.33 195.55 99.34 196.10
  Q 101.34 196.65 100.55 199.57
  Q 96.67 213.79 95.44 218.22
  Q 95.29 218.78 95.86 218.94
  L 98.66 219.71
  A 0.62 0.59 -74.2 0 0 99.39 219.27
  Q 99.60 218.49 104.74 199.76
  C 105.73 196.17 103.87 193.38 100.35 192.41"
/>
<path stroke="#7d680d" vector-effect="non-scaling-stroke" d="
  M 125.45 195.42
  Q 124.60 195.48 123.91 195.62
  Q 123.35 195.74 123.39 196.31
  L 124.72 217.49
  Q 124.76 218.02 124.23 218.05
  L 121.16 218.25
  Q 120.39 218.30 120.44 219.06
  L 120.59 221.43
  Q 120.63 222.17 121.37 222.13
  Q 124.20 221.97 127.11 221.83
  Q 130.00 221.61 132.83 221.41
  Q 133.57 221.36 133.52 220.62
  L 133.37 218.25
  Q 133.33 217.49 132.56 217.54
  L 129.49 217.72
  Q 128.96 217.76 128.93 217.23
  L 127.61 196.05
  Q 127.58 195.48 127.01 195.43
  Q 126.31 195.37 125.45 195.42"
/>
<path stroke="#7d680d" vector-effect="non-scaling-stroke" d="
  M 142.80 22.18
  L 138.45 39.39
  A 0.59 0.59 0.0 0 0 138.87 40.11
  L 139.99 40.39
  A 2.69 2.54 -75.8 0 0 143.11 38.41
  L 146.44 25.26
  A 2.69 2.54 -75.8 0 0 144.64 22.03
  L 143.52 21.75
  A 0.59 0.59 0.0 0 0 142.80 22.18"
/>
<path stroke="#7d680d" vector-effect="non-scaling-stroke" d="
  M 176.4826 38.3486
  A 2.07 2.07 0.0 0 0 175.9090 35.4779
  L 175.7260 35.3558
  A 2.07 2.07 0.0 0 0 172.8553 35.9294
  L 164.2774 48.7914
  A 2.07 2.07 0.0 0 0 164.8510 51.6621
  L 165.0340 51.7842
  A 2.07 2.07 0.0 0 0 167.9047 51.2106
  L 176.4826 38.3486"
/>
<path stroke="#7d680d" vector-effect="non-scaling-stroke" d="
  M 118.47 56.51
  L 110.90 56.51
  Q 110.12 56.51 110.51 57.16
  L 112.64 60.68
  Q 112.95 61.19 113.44 60.84
  L 118.65 57.08
  Q 119.45 56.51 118.47 56.51"
/>
<path stroke="#7d680d" vector-effect="non-scaling-stroke" d="
  M 86.83 70.37
  Q 85.33 70.99 84.76 71.62
  Q 84.39 72.03 84.94 72.11
  L 89.38 72.74
  Q 89.91 72.81 89.76 72.30
  L 89.12 70.14
  Q 88.97 69.65 88.46 69.61
  C 87.97 69.57 87.44 70.11 86.83 70.37"
/>
<path stroke="#808080" vector-effect="non-scaling-stroke" d="
  M 141.8006 115.6015
  A 13.81 1.41 119.4 0 0 149.8084 104.2622
  A 13.81 1.41 119.4 0 0 155.3594 91.5385
  A 13.81 1.41 119.4 0 0 147.3516 102.8778
  A 13.81 1.41 119.4 0 0 141.8006 115.6015"
/>
<path stroke="#808080" vector-effect="non-scaling-stroke" d="
  M 177.62 115.76
  C 175.12 118.08 171.57 122.47 169.34 125.11
  Q 168.86 125.67 168.94 126.38
  A 0.72 0.72 0.0 0 0 169.87 126.99
  Q 176.48 124.93 179.31 119.09
  Q 180.04 117.58 179.70 116.35
  A 1.27 1.27 0.0 0 0 177.62 115.76"
/>
<path stroke="#7d680d" vector-effect="non-scaling-stroke" d="
  M 65.48 200.88
  L 69.18 195.71
  A 0.55 0.55 0.0 0 0 69.05 194.94
  L 68.00 194.19
  A 2.31 2.14 -54.5 0 0 64.91 194.83
  L 63.27 197.14
  A 2.31 2.14 -54.5 0 0 63.67 200.26
  L 64.72 201.01
  A 0.55 0.55 0.0 0 0 65.48 200.88"
/>
</g>
<!-- <path fill="#ffffff" d="
  M 240.00 0.00
  L 240.00 240.00
  L 0.00 240.00
  L 0.00 0.00
  L 240.00 0.00
  Z
  M 228.53 119.59
  A 108.37 108.37 0.0 0 0 120.16 11.22
  A 108.37 108.37 0.0 0 0 11.79 119.59
  A 108.37 108.37 0.0 0 0 120.16 227.96
  A 108.37 108.37 0.0 0 0 228.53 119.59
  Z"
/> -->
<path fill="#000000" d="
  M 228.53 119.59
  A 108.37 108.37 0.0 0 1 120.16 227.96
  A 108.37 108.37 0.0 0 1 11.79 119.59
  A 108.37 108.37 0.0 0 1 120.16 11.22
  A 108.37 108.37 0.0 0 1 228.53 119.59
  Z
  M 114.96 31.45
  L 115.29 36.83
  Q 115.40 38.73 113.21 38.63
  L 113.13 38.63
  Q 111.17 38.55 111.01 36.73
  L 109.62 21.54
  A 2.24 2.22 73.6 0 1 110.79 19.37
  Q 112.52 18.45 113.67 20.35
  Q 114.03 20.94 114.15 23.41
  Q 114.17 23.95 114.72 23.92
  L 117.50 23.74
  Q 118.01 23.71 118.01 23.20
  C 118.01 18.01 115.42 13.83 109.62 15.62
  Q 105.30 16.95 105.52 21.32
  Q 105.79 26.74 106.96 37.05
  Q 107.58 42.46 112.98 42.52
  C 117.47 42.57 119.43 39.71 119.15 35.32
  Q 118.99 32.94 118.43 27.21
  Q 118.37 26.66 117.82 26.69
  L 113.04 27.00
  A 0.64 0.64 0.0 0 0 112.44 27.68
  L 112.59 30.09
  A 0.85 0.83 -3.4 0 0 113.49 30.87
  L 114.25 30.82
  Q 114.92 30.78 114.96 31.45
  Z
  M 139.69 17.44
  L 133.56 42.05
  A 0.52 0.52 0.0 0 0 133.94 42.68
  L 140.00 44.19
  A 5.86 5.75 -76.0 0 0 147.00 39.90
  L 150.55 25.65
  A 5.86 5.75 -76.0 0 0 146.39 18.58
  L 140.32 17.06
  A 0.52 0.52 0.0 0 0 139.69 17.44
  Z
  M 78.30 34.49
  Q 77.37 32.49 78.77 34.19
  L 89.70 47.49
  Q 90.09 47.96 90.65 47.70
  L 93.54 46.36
  Q 94.00 46.14 93.79 45.69
  L 83.14 22.86
  A 0.68 0.67 -24.7 0 0 82.24 22.53
  L 80.03 23.55
  Q 79.42 23.84 79.71 24.46
  L 85.57 36.74
  Q 85.60 36.80 85.58 36.86
  Q 85.54 37.02 85.45 37.09
  Q 85.33 37.18 85.24 37.06
  L 76.16 26.03
  Q 75.78 25.55 75.22 25.81
  L 71.60 27.50
  Q 71.03 27.77 71.29 28.34
  L 81.92 51.13
  Q 82.16 51.65 82.68 51.41
  L 85.10 50.28
  Q 85.57 50.06 85.35 49.60
  L 78.30 34.49
  Z
  M 179.9415 40.4819
  A 5.70 5.70 0.0 0 0 178.3482 32.5799
  L 177.3820 31.9380
  A 5.70 5.70 0.0 0 0 169.4800 33.5313
  L 160.7585 46.6581
  A 5.70 5.70 0.0 0 0 162.3518 54.5601
  L 163.3180 55.2020
  A 5.70 5.70 0.0 0 0 171.2200 53.6087
  L 179.9415 40.4819
  Z
  M 53.0495 41.0907
  A 0.41 0.41 0.0 0 0 52.4703 41.0634
  L 50.0295 43.2843
  A 0.41 0.41 0.0 0 0 50.0022 43.8635
  L 67.1505 62.7093
  A 0.41 0.41 0.0 0 0 67.7297 62.7366
  L 70.1705 60.5157
  A 0.41 0.41 0.0 0 0 70.1978 59.9365
  L 53.0495 41.0907
  Z
  M 93.35 55.89
  L 85.72 66.81
  A 2.30 2.30 0.0 0 1 84.49 67.70
  L 70.21 71.92
  Q 69.70 72.07 69.40 72.50
  L 66.74 76.31
  A 0.70 0.69 -64.7 0 1 66.00 76.58
  L 64.31 76.16
  A 0.82 0.75 23.7 0 0 63.46 76.45
  L 60.14 81.20
  A 0.44 0.43 -79.5 0 0 60.60 81.88
  Q 65.93 80.52 67.68 80.14
  C 71.50 79.32 74.90 79.92 78.44 79.14
  Q 85.02 77.68 94.22 76.17
  Q 96.34 75.82 98.44 76.11
  Q 102.03 76.60 102.66 76.74
  Q 103.17 76.85 103.51 77.17
  Q 105.30 78.84 104.75 81.37
  Q 104.60 82.06 105.21 81.69
  Q 106.18 81.10 106.51 80.54
  A 0.91 0.91 0.0 0 0 106.55 79.68
  L 104.84 76.00
  Q 104.58 75.46 105.03 75.05
  L 116.08 64.87
  A 1.26 1.24 30.0 0 1 117.23 64.57
  Q 120.89 65.43 124.83 66.46
  Q 126.83 66.98 130.22 66.22
  Q 140.79 63.86 157.20 60.35
  Q 158.55 60.06 157.36 59.35
  Q 125.75 40.57 91.32 54.45
  Q 91.03 54.57 90.96 54.87
  L 90.84 55.35
  A 0.20 0.20 0.0 0 0 91.12 55.58
  Q 92.29 55.01 93.16 55.31
  Q 93.65 55.47 93.35 55.89
  Z
  M 183.23 73.94
  Q 183.70 74.61 184.01 75.02
  Q 184.29 75.37 184.69 75.17
  L 200.50 67.17
  Q 200.68 67.08 200.80 67.22
  L 200.80 67.23
  Q 200.94 67.39 200.78 67.50
  L 186.51 77.57
  Q 186.00 77.93 186.36 78.43
  L 187.85 80.49
  A 0.67 0.67 0.0 0 0 188.79 80.65
  L 209.11 66.00
  Q 209.59 65.65 209.24 65.17
  L 206.52 61.39
  Q 206.16 60.90 205.62 61.18
  Q 190.40 69.27 190.21 69.00
  Q 190.02 68.74 202.72 57.08
  Q 203.16 56.66 202.82 56.16
  L 200.16 52.34
  Q 199.83 51.85 199.34 52.18
  L 178.76 66.47
  A 0.67 0.67 0.0 0 0 178.59 67.40
  L 180.04 69.50
  Q 180.39 70.00 180.90 69.64
  L 195.15 59.54
  Q 195.31 59.42 195.41 59.61
  L 195.42 59.61
  Q 195.51 59.77 195.37 59.91
  L 182.56 72.16
  Q 182.24 72.47 182.48 72.84
  Q 182.76 73.27 183.23 73.94
  Z
  M 45.03 74.24
  L 55.34 76.81
  Q 55.89 76.95 56.17 76.46
  L 57.70 73.81
  Q 58.08 73.14 57.33 72.97
  Q 52.28 71.82 41.75 69.00
  Q 40.80 68.75 35.88 60.40
  Q 35.46 59.68 35.04 60.40
  L 33.53 63.03
  Q 33.25 63.51 33.56 63.96
  L 39.31 72.38
  Q 40.06 73.47 38.91 72.81
  L 31.10 68.30
  Q 30.53 67.97 30.19 68.55
  L 28.72 71.10
  A 0.61 0.61 0.0 0 0 28.94 71.93
  L 50.79 84.54
  Q 51.25 84.81 51.52 84.35
  L 52.94 81.88
  A 0.65 0.65 0.0 0 0 52.70 80.99
  Q 47.83 78.24 46.21 77.08
  Q 45.42 76.52 44.65 74.69
  Q 44.38 74.07 45.03 74.24
  Z
  M 111.83 78.31
  Q 110.53 79.54 109.40 80.86
  Q 108.83 81.53 109.68 81.33
  L 118.54 79.27
  Q 120.00 78.94 119.80 77.58
  L 118.95 71.77
  Q 118.73 70.27 117.54 71.01
  L 114.15 73.12
  Q 113.65 73.42 113.53 73.91
  C 113.06 75.71 112.88 77.33 111.83 78.31
  Z
  M 112.42 131.63
  Q 111.17 139.32 118.12 141.08
  Q 118.60 141.20 119.07 141.03
  Q 120.67 140.44 121.47 139.97
  Q 128.40 135.99 134.15 130.61
  A 0.36 0.36 0.0 0 1 134.76 130.85
  Q 134.96 133.52 135.73 135.86
  Q 136.67 138.70 140.67 141.01
  Q 141.10 141.26 141.58 141.14
  Q 146.62 139.80 147.54 139.31
  Q 157.15 134.14 156.22 123.13
  A 1.04 1.03 79.3 0 1 156.95 122.05
  L 164.48 119.83
  Q 165.48 119.54 164.90 120.40
  Q 161.33 125.78 161.28 132.22
  Q 161.25 136.66 164.65 139.50
  C 167.33 141.74 169.70 142.80 173.06 141.29
  Q 177.40 139.34 183.09 135.52
  Q 186.28 133.37 189.35 130.34
  Q 191.73 127.97 195.28 124.97
  Q 196.31 124.09 195.39 123.09
  Q 194.69 122.33 193.07 122.84
  A 1.16 1.13 12.2 0 0 192.59 123.14
  Q 188.71 127.13 187.78 128.02
  C 183.29 132.33 175.28 136.98 168.90 135.51
  Q 168.30 135.37 168.26 134.75
  L 168.08 131.96
  Q 168.05 131.47 168.51 131.32
  C 170.98 130.48 174.27 128.77 177.29 127.44
  Q 183.48 124.71 184.53 117.60
  Q 185.25 112.82 182.68 110.22
  Q 182.27 109.81 181.69 109.74
  Q 178.68 109.38 178.03 109.61
  Q 172.10 111.70 168.49 116.57
  A 1.90 1.04 -62.8 0 1 167.27 117.40
  L 154.89 117.73
  Q 154.07 117.75 153.84 117.92
  Q 151.47 119.74 151.38 121.95
  Q 151.28 124.46 150.02 126.79
  C 148.80 129.05 145.88 134.16 143.16 134.60
  A 2.21 2.21 0.0 0 1 140.69 133.07
  Q 139.95 130.68 139.96 126.34
  Q 139.96 124.24 141.58 122.15
  Q 146.29 116.08 149.06 112.99
  C 150.52 111.37 151.06 110.15 152.37 107.76
  Q 153.35 105.97 154.85 103.86
  Q 159.85 96.81 163.84 88.21
  Q 164.90 85.93 164.92 84.48
  C 164.96 81.43 164.74 78.88 161.46 78.04
  C 159.83 77.62 157.87 79.66 156.92 80.66
  Q 144.30 94.07 137.84 111.15
  C 135.50 117.34 133.77 120.93 134.55 126.08
  Q 134.62 126.58 134.26 126.93
  Q 131.60 129.48 128.27 131.00
  Q 121.81 133.95 121.26 134.21
  Q 120.97 134.34 118.56 134.29
  Q 118.03 134.28 118.10 133.76
  Q 118.30 132.36 119.04 130.79
  Q 121.11 126.42 126.32 116.13
  Q 126.95 114.88 127.10 113.77
  A 1.90 1.89 -1.5 0 0 124.87 111.66
  L 121.38 112.30
  Q 120.39 112.49 119.91 113.52
  Q 117.13 119.51 115.76 121.80
  Q 114.45 123.99 113.50 124.52
  Q 108.79 127.13 106.29 130.51
  Q 104.92 132.36 103.98 132.72
  Q 102.77 133.19 101.04 134.19
  A 0.75 0.75 0.0 0 1 100.15 134.09
  C 98.32 132.43 97.77 130.15 99.48 128.01
  Q 101.07 126.01 102.86 122.67
  A 1.18 1.14 -43.0 0 0 102.91 121.66
  Q 101.11 117.41 97.42 113.80
  Q 96.96 113.36 97.05 112.73
  L 97.56 109.11
  A 0.78 0.78 0.0 0 0 96.81 108.22
  Q 93.72 108.16 92.18 110.15
  Q 88.72 114.62 86.32 119.33
  Q 84.73 122.47 77.77 131.03
  Q 76.51 132.58 76.17 134.55
  Q 75.72 137.20 76.62 139.42
  Q 77.43 141.38 78.50 139.55
  Q 80.85 135.53 84.17 131.00
  Q 84.20 130.95 88.14 124.89
  Q 90.91 120.62 94.20 118.01
  A 0.46 0.46 0.0 0 1 94.94 118.33
  Q 95.12 119.92 96.01 121.29
  Q 96.28 121.70 96.12 122.18
  C 95.12 125.09 92.98 128.31 92.39 130.91
  Q 90.95 137.23 97.08 140.82
  Q 97.51 141.07 98.01 140.95
  Q 103.06 139.71 106.55 135.75
  Q 108.94 133.02 111.91 131.28
  Q 112.53 130.91 112.42 131.63
  Z
  M 75.43 88.92
  L 53.66 135.64
  Q 53.45 136.11 53.67 136.57
  Q 54.71 138.76 56.66 140.22
  C 58.08 141.29 59.88 140.55 60.34 138.82
  C 60.90 136.76 61.78 135.51 63.58 131.87
  Q 64.98 129.04 65.92 126.28
  Q 68.00 120.18 68.88 118.38
  Q 73.30 109.31 74.16 106.97
  Q 75.58 103.11 76.28 101.79
  Q 77.88 98.73 78.63 96.71
  C 79.80 93.55 82.14 90.65 84.09 87.41
  Q 84.35 86.97 84.86 86.86
  Q 88.33 86.14 92.79 84.91
  C 95.02 84.30 97.68 85.34 99.48 84.08
  Q 101.35 82.76 102.31 80.46
  A 0.77 0.77 0.0 0 0 101.79 79.42
  Q 97.91 78.43 94.14 78.88
  Q 91.17 79.22 78.38 81.93
  C 75.63 82.52 71.81 82.00 68.91 82.60
  Q 63.68 83.70 58.96 85.26
  Q 56.68 86.01 58.31 87.78
  L 59.76 89.36
  Q 61.07 90.77 62.84 90.03
  C 64.78 89.21 66.89 88.28 69.09 88.38
  Q 72.17 88.51 75.08 88.39
  A 0.37 0.37 0.0 0 1 75.43 88.92
  Z
  M 90.42 94.17
  L 97.96 87.97
  Q 98.44 87.57 97.82 87.48
  C 94.34 87.00 91.15 87.98 86.49 89.39
  Q 86.01 89.54 85.73 89.94
  C 84.30 92.01 82.40 94.77 81.19 97.53
  Q 77.57 105.81 77.52 105.94
  Q 75.38 111.34 72.29 117.53
  C 69.39 123.35 68.48 128.56 65.37 134.09
  Q 63.72 137.02 62.42 140.91
  Q 62.06 141.98 59.46 143.31
  Q 59.01 143.54 59.40 143.86
  L 64.94 148.34
  A 1.01 1.01 0.0 0 1 65.24 149.50
  L 61.37 159.17
  A 0.86 0.84 -52.2 0 0 61.46 159.97
  C 72.81 176.03 89.49 186.65 108.80 189.68
  C 126.01 192.38 143.83 188.67 158.43 179.12
  Q 181.84 163.79 189.07 135.33
  Q 189.34 134.26 188.46 134.93
  Q 181.07 140.47 173.92 143.83
  Q 169.33 145.98 164.44 142.69
  Q 158.94 138.99 158.67 132.74
  Q 158.57 130.51 157.57 132.51
  Q 152.90 141.83 142.43 143.68
  C 140.94 143.94 140.12 143.66 138.91 143.13
  Q 138.40 142.91 138.10 143.37
  C 136.55 145.71 135.23 147.28 135.09 149.82
  Q 134.80 155.20 134.61 160.07
  A 2.46 2.45 62.1 0 1 134.26 161.22
  L 125.34 175.91
  Q 125.09 176.32 124.60 176.44
  L 115.62 178.61
  Q 115.06 178.75 114.85 178.19
  Q 112.69 172.22 109.79 163.67
  Q 108.67 160.35 108.53 155.72
  Q 108.34 149.78 107.13 139.71
  A 0.35 0.35 0.0 0 0 106.57 139.48
  C 103.87 141.62 98.83 144.81 95.47 142.93
  Q 91.51 140.71 89.96 136.44
  Q 89.80 136.00 89.43 135.72
  Q 87.80 134.46 87.55 132.95
  Q 87.25 131.12 86.17 132.63
  Q 83.30 136.66 80.56 141.24
  C 79.60 142.86 78.48 143.59 76.71 143.09
  C 73.54 142.19 73.22 137.28 73.42 134.31
  Q 73.57 132.04 76.00 129.05
  Q 79.09 125.24 82.27 120.78
  Q 82.89 119.92 82.44 118.96
  L 81.59 117.14
  Q 81.31 116.54 81.73 116.03
  L 93.00 102.11
  Q 93.34 101.70 93.11 101.22
  L 90.22 95.02
  Q 89.99 94.52 90.42 94.17
  Z
  M 125.95 89.43
  L 123.87 94.62
  Q 123.67 95.12 124.20 95.17
  Q 125.14 95.26 132.66 95.88
  Q 133.89 95.98 134.26 95.54
  Q 134.87 94.81 135.16 93.98
  Q 135.37 93.41 134.82 93.15
  L 126.43 89.24
  Q 126.09 89.08 125.95 89.43
  Z
  M 64.87 92.11
  C 61.11 93.78 58.67 92.78 56.43 89.68
  A 0.58 0.58 0.0 0 0 55.44 89.78
  Q 45.52 111.28 50.43 134.43
  Q 50.63 135.37 51.07 134.52
  C 51.77 133.14 52.88 131.83 53.40 130.35
  Q 55.57 124.26 59.16 117.98
  C 60.03 116.45 60.15 114.42 61.11 112.72
  Q 66.74 102.76 70.93 91.72
  Q 71.14 91.19 70.57 91.13
  Q 67.75 90.82 64.87 92.11
  Z
  M 111.41 100.37
  L 111.52 99.59
  Q 111.61 98.93 111.06 98.54
  L 104.61 94.03
  Q 104.09 93.67 103.63 94.10
  L 96.50 100.66
  Q 96.11 101.02 96.64 100.99
  L 105.22 100.45
  Q 105.69 100.42 105.89 100.84
  L 106.90 103.02
  Q 107.14 103.53 107.69 103.60
  L 120.78 105.46
  Q 121.66 105.58 121.64 104.70
  Q 121.61 102.55 122.53 100.55
  Q 123.00 99.53 121.71 99.89
  Q 120.85 100.12 119.26 99.77
  Q 118.75 99.65 118.41 99.25
  Q 114.94 95.14 114.57 94.77
  Q 113.82 94.03 113.94 94.83
  Q 114.02 95.47 114.60 96.71
  A 1.68 1.67 -34.0 0 1 114.22 98.64
  L 112.00 100.68
  A 0.35 0.35 0.0 0 1 111.41 100.37
  Z
  M 131.29 103.33
  C 131.07 102.14 131.35 101.03 131.44 100.01
  A 1.10 1.10 0.0 0 0 130.17 98.82
  Q 125.96 99.51 124.75 102.16
  C 123.58 104.73 124.75 107.01 127.53 107.37
  A 1.30 1.29 -58.8 0 0 128.46 107.14
  Q 129.66 106.27 130.64 105.40
  Q 131.14 104.96 131.26 104.48
  Q 131.40 103.93 131.29 103.33
  Z
  M 215.04 115.90
  A 4.36 4.36 0.0 0 0 210.68 111.54
  A 4.36 4.36 0.0 0 0 206.32 115.90
  A 4.36 4.36 0.0 0 0 210.68 120.26
  A 4.36 4.36 0.0 0 0 215.04 115.90
  Z
  M 155.06 114.84
  Q 155.51 114.78 155.16 114.50
  Q 154.74 114.17 153.73 114.22
  Q 153.50 114.23 153.43 114.43
  Q 153.32 114.76 153.66 114.83
  Q 154.22 114.96 155.06 114.84
  Z
  M 34.85 121.09
  A 4.37 4.37 0.0 0 0 30.48 116.72
  A 4.37 4.37 0.0 0 0 26.11 121.09
  A 4.37 4.37 0.0 0 0 30.48 125.46
  A 4.37 4.37 0.0 0 0 34.85 121.09
  Z
  M 183.28 126.54
  C 180.27 129.80 176.34 130.33 173.22 132.50
  Q 172.74 132.83 173.32 132.85
  Q 174.47 132.89 176.55 132.04
  Q 183.33 129.25 187.95 124.04
  Q 188.28 123.66 188.07 123.20
  L 187.05 121.01
  A 0.31 0.31 0.0 0 0 186.47 121.04
  Q 185.47 124.16 183.28 126.54
  Z
  M 145.85 123.81
  C 143.95 125.05 141.95 125.55 142.77 128.47
  A 1.54 1.54 0.0 0 0 145.45 129.02
  Q 147.54 126.42 148.77 122.70
  A 0.29 0.29 0.0 0 0 148.37 122.35
  Q 147.31 122.87 145.85 123.81
  Z
  M 159.01 127.03
  Q 159.09 127.32 159.21 127.04
  Q 159.71 125.91 159.67 124.54
  Q 159.66 124.32 159.43 124.33
  Q 159.29 124.33 159.18 124.37
  Q 159.02 124.43 158.98 124.69
  Q 158.79 126.14 159.01 127.03
  Z
  M 205.24 170.00
  Q 203.86 169.77 201.73 168.28
  Q 201.11 167.85 200.73 168.51
  L 199.44 170.75
  Q 199.12 171.30 199.64 171.67
  C 201.75 173.19 205.38 174.95 207.72 173.42
  C 211.79 170.76 212.87 165.22 208.08 162.43
  Q 202.80 159.36 197.50 156.31
  Q 193.72 154.13 192.07 153.95
  Q 188.35 153.54 186.36 157.66
  C 183.86 162.81 188.17 165.34 192.02 167.25
  Q 192.58 167.52 192.89 166.98
  L 194.18 164.74
  Q 194.51 164.17 193.95 163.83
  L 190.54 161.75
  Q 188.92 160.76 190.05 159.06
  Q 190.07 159.03 190.09 158.99
  Q 191.12 157.41 192.85 158.40
  Q 198.46 161.60 205.67 165.85
  Q 207.87 167.15 206.86 169.17
  A 1.52 1.52 0.0 0 1 205.24 170.00
  Z
  M 55.45 166.36
  A 0.46 0.46 0.0 0 1 55.35 167.00
  L 49.53 171.18
  A 0.46 0.46 0.0 0 1 48.89 171.08
  L 46.09 167.18
  A 0.46 0.46 0.0 0 0 45.45 167.08
  L 43.15 168.73
  A 0.46 0.46 0.0 0 0 43.05 169.37
  L 45.87 173.29
  A 0.46 0.46 0.0 0 1 45.77 173.93
  L 40.89 177.44
  A 0.46 0.46 0.0 0 1 40.25 177.34
  L 36.55 172.19
  A 0.46 0.46 0.0 0 0 35.91 172.09
  L 33.56 173.77
  A 0.46 0.46 0.0 0 0 33.46 174.41
  L 39.57 182.90
  A 0.46 0.46 0.0 0 0 40.21 183.00
  L 60.85 168.13
  A 0.46 0.46 0.0 0 0 60.95 167.49
  L 54.84 159.00
  A 0.46 0.46 0.0 0 0 54.20 158.90
  L 51.85 160.59
  A 0.46 0.46 0.0 0 0 51.75 161.23
  L 55.45 166.36
  Z
  M 170.55 176.49
  C 167.77 178.89 167.30 182.21 169.74 185.04
  Q 182.47 199.76 183.00 200.38
  A 0.63 0.59 48.7 0 0 183.85 200.46
  L 186.05 198.56
  Q 186.50 198.17 186.12 197.73
  Q 183.09 194.25 173.45 183.06
  Q 171.48 180.76 173.06 179.40
  Q 174.63 178.03 176.62 180.32
  Q 186.29 191.48 189.30 194.99
  Q 189.68 195.43 190.13 195.04
  L 192.33 193.14
  A 0.63 0.59 49.6 0 0 192.37 192.28
  Q 191.83 191.67 179.12 176.93
  C 176.68 174.11 173.32 174.10 170.55 176.49
  Z
  M 65.05 190.74
  Q 63.06 190.61 61.41 192.66
  C 59.01 195.65 56.65 199.23 60.12 202.16
  Q 62.84 204.46 66.06 206.50
  A 0.46 0.45 33.9 0 0 66.68 206.38
  L 81.26 185.52
  Q 81.52 185.16 81.15 184.90
  L 78.48 183.03
  Q 78.13 182.79 77.89 183.14
  L 72.11 191.41
  Q 71.43 192.37 70.64 191.50
  L 69.72 190.50
  A 1.95 1.94 41.1 0 1 69.55 188.07
  L 74.47 181.03
  A 0.62 0.62 0.0 0 0 74.32 180.16
  L 71.67 178.31
  Q 71.26 178.03 71.00 178.45
  Q 68.73 182.18 65.68 186.48
  Q 65.07 187.34 65.49 190.28
  Q 65.56 190.77 65.05 190.74
  Z
  M 144.23 192.08
  A 0.60 0.60 0.0 0 0 143.89 192.86
  L 144.86 195.26
  A 0.60 0.60 0.0 0 0 145.64 195.60
  L 150.90 193.47
  A 0.60 0.60 0.0 0 1 151.68 193.81
  L 159.67 213.61
  A 0.60 0.60 0.0 0 0 160.45 213.95
  L 163.18 212.84
  A 0.60 0.60 0.0 0 0 163.52 212.06
  L 154.12 188.74
  A 0.60 0.60 0.0 0 0 153.34 188.40
  L 144.23 192.08
  Z
  M 100.35 192.41
  C 96.82 191.44 93.80 192.90 92.82 196.49
  Q 87.69 215.22 87.47 216.00
  A 0.62 0.59 -75.1 0 0 87.88 216.75
  L 90.68 217.52
  Q 91.25 217.68 91.40 217.12
  Q 92.60 212.67 96.52 198.47
  Q 97.33 195.55 99.34 196.10
  Q 101.34 196.65 100.55 199.57
  Q 96.67 213.79 95.44 218.22
  Q 95.29 218.78 95.86 218.94
  L 98.66 219.71
  A 0.62 0.59 -74.2 0 0 99.39 219.27
  Q 99.60 218.49 104.74 199.76
  C 105.73 196.17 103.87 193.38 100.35 192.41
  Z
  M 125.45 195.42
  Q 124.60 195.48 123.91 195.62
  Q 123.35 195.74 123.39 196.31
  L 124.72 217.49
  Q 124.76 218.02 124.23 218.05
  L 121.16 218.25
  Q 120.39 218.30 120.44 219.06
  L 120.59 221.43
  Q 120.63 222.17 121.37 222.13
  Q 124.20 221.97 127.11 221.83
  Q 130.00 221.61 132.83 221.41
  Q 133.57 221.36 133.52 220.62
  L 133.37 218.25
  Q 133.33 217.49 132.56 217.54
  L 129.49 217.72
  Q 128.96 217.76 128.93 217.23
  L 127.61 196.05
  Q 127.58 195.48 127.01 195.43
  Q 126.31 195.37 125.45 195.42
  Z"
/>
<path fill="#f9cf19" d="
  M 114.25 30.82
  L 113.49 30.87
  A 0.85 0.83 -3.4 0 1 112.59 30.09
  L 112.44 27.68
  A 0.64 0.64 0.0 0 1 113.04 27.00
  L 117.82 26.69
  Q 118.37 26.66 118.43 27.21
  Q 118.99 32.94 119.15 35.32
  C 119.43 39.71 117.47 42.57 112.98 42.52
  Q 107.58 42.46 106.96 37.05
  Q 105.79 26.74 105.52 21.32
  Q 105.30 16.95 109.62 15.62
  C 115.42 13.83 118.01 18.01 118.01 23.20
  Q 118.01 23.71 117.50 23.74
  L 114.72 23.92
  Q 114.17 23.95 114.15 23.41
  Q 114.03 20.94 113.67 20.35
  Q 112.52 18.45 110.79 19.37
  A 2.24 2.22 73.6 0 0 109.62 21.54
  L 111.01 36.73
  Q 111.17 38.55 113.13 38.63
  L 113.21 38.63
  Q 115.40 38.73 115.29 36.83
  L 114.96 31.45
  Q 114.92 30.78 114.25 30.82
  Z"
/>
<path fill="#f9cf19" d="
  M 139.69 17.44
  A 0.52 0.52 0.0 0 1 140.32 17.06
  L 146.39 18.58
  A 5.86 5.75 -76.0 0 1 150.55 25.65
  L 147.00 39.90
  A 5.86 5.75 -76.0 0 1 140.00 44.19
  L 133.94 42.68
  A 0.52 0.52 0.0 0 1 133.56 42.05
  L 139.69 17.44
  Z
  M 142.80 22.18
  L 138.45 39.39
  A 0.59 0.59 0.0 0 0 138.87 40.11
  L 139.99 40.39
  A 2.69 2.54 -75.8 0 0 143.11 38.41
  L 146.44 25.26
  A 2.69 2.54 -75.8 0 0 144.64 22.03
  L 143.52 21.75
  A 0.59 0.59 0.0 0 0 142.80 22.18
  Z"
/>
<path fill="#000000" d="
  M 142.80 22.18
  A 0.59 0.59 0.0 0 1 143.52 21.75
  L 144.64 22.03
  A 2.69 2.54 -75.8 0 1 146.44 25.26
  L 143.11 38.41
  A 2.69 2.54 -75.8 0 1 139.99 40.39
  L 138.87 40.11
  A 0.59 0.59 0.0 0 1 138.45 39.39
  L 142.80 22.18
  Z"
/>
<path fill="#f9cf19" d="
  M 78.30 34.49
  L 85.35 49.60
  Q 85.57 50.06 85.10 50.28
  L 82.68 51.41
  Q 82.16 51.65 81.92 51.13
  L 71.29 28.34
  Q 71.03 27.77 71.60 27.50
  L 75.22 25.81
  Q 75.78 25.55 76.16 26.03
  L 85.24 37.06
  Q 85.33 37.18 85.45 37.09
  Q 85.54 37.02 85.58 36.86
  Q 85.60 36.80 85.57 36.74
  L 79.71 24.46
  Q 79.42 23.84 80.03 23.55
  L 82.24 22.53
  A 0.68 0.67 -24.7 0 1 83.14 22.86
  L 93.79 45.69
  Q 94.00 46.14 93.54 46.36
  L 90.65 47.70
  Q 90.09 47.96 89.70 47.49
  L 78.77 34.19
  Q 77.37 32.49 78.30 34.49
  Z"
/>
<path fill="#f9cf19" d="
  M 171.2200 53.6087
  A 5.70 5.70 0.0 0 1 163.3180 55.2020
  L 162.3518 54.5601
  A 5.70 5.70 0.0 0 1 160.7585 46.6581
  L 169.4800 33.5313
  A 5.70 5.70 0.0 0 1 177.3820 31.9380
  L 178.3482 32.5799
  A 5.70 5.70 0.0 0 1 179.9415 40.4819
  L 171.2200 53.6087
  Z
  M 176.4826 38.3486
  A 2.07 2.07 0.0 0 0 175.9090 35.4779
  L 175.7260 35.3558
  A 2.07 2.07 0.0 0 0 172.8553 35.9294
  L 164.2774 48.7914
  A 2.07 2.07 0.0 0 0 164.8510 51.6621
  L 165.0340 51.7842
  A 2.07 2.07 0.0 0 0 167.9047 51.2106
  L 176.4826 38.3486
  Z"
/>
<rect fill="#000000" x="-2.18" y="-9.80" transform="translate(170.38,43.57) rotate(33.7)" width="4.36" height="19.60" rx="2.07"/>
<rect fill="#f9cf19" x="-2.06" y="-13.15" transform="translate(60.10,51.90) rotate(-42.3)" width="4.12" height="26.30" rx="0.41"/>
<path fill="#f9cf19" d="
  M 93.16 55.31
  Q 92.29 55.01 91.12 55.58
  A 0.20 0.20 0.0 0 1 90.84 55.35
  L 90.96 54.87
  Q 91.03 54.57 91.32 54.45
  Q 125.75 40.57 157.36 59.35
  Q 158.55 60.06 157.20 60.35
  Q 140.79 63.86 130.22 66.22
  Q 126.83 66.98 124.83 66.46
  Q 120.89 65.43 117.23 64.57
  A 1.26 1.24 30.0 0 0 116.08 64.87
  L 105.03 75.05
  Q 104.58 75.46 104.84 76.00
  L 106.55 79.68
  A 0.91 0.91 0.0 0 1 106.51 80.54
  Q 106.18 81.10 105.21 81.69
  Q 104.60 82.06 104.75 81.37
  Q 105.30 78.84 103.51 77.17
  Q 103.17 76.85 102.66 76.74
  Q 102.03 76.60 98.44 76.11
  Q 96.34 75.82 94.22 76.17
  Q 85.02 77.68 78.44 79.14
  C 74.90 79.92 71.50 79.32 67.68 80.14
  Q 65.93 80.52 60.60 81.88
  A 0.44 0.43 -79.5 0 1 60.14 81.20
  L 63.46 76.45
  A 0.82 0.75 23.7 0 1 64.31 76.16
  L 66.00 76.58
  A 0.70 0.69 -64.7 0 0 66.74 76.31
  L 69.40 72.50
  Q 69.70 72.07 70.21 71.92
  L 84.49 67.70
  A 2.30 2.30 0.0 0 0 85.72 66.81
  L 93.35 55.89
  Q 93.65 55.47 93.16 55.31
  Z
  M 118.47 56.51
  L 110.90 56.51
  Q 110.12 56.51 110.51 57.16
  L 112.64 60.68
  Q 112.95 61.19 113.44 60.84
  L 118.65 57.08
  Q 119.45 56.51 118.47 56.51
  Z
  M 86.83 70.37
  Q 85.33 70.99 84.76 71.62
  Q 84.39 72.03 84.94 72.11
  L 89.38 72.74
  Q 89.91 72.81 89.76 72.30
  L 89.12 70.14
  Q 88.97 69.65 88.46 69.61
  C 87.97 69.57 87.44 70.11 86.83 70.37
  Z"
/>
<path fill="#f9cf19" d="
  M 190.21 69.00
  Q 190.40 69.27 205.62 61.18
  Q 206.16 60.90 206.52 61.39
  L 209.24 65.17
  Q 209.59 65.65 209.11 66.00
  L 188.79 80.65
  A 0.67 0.67 0.0 0 1 187.85 80.49
  L 186.36 78.43
  Q 186.00 77.93 186.51 77.57
  L 200.78 67.50
  Q 200.94 67.39 200.80 67.23
  L 200.80 67.22
  Q 200.68 67.08 200.50 67.17
  L 184.69 75.17
  Q 184.29 75.37 184.01 75.02
  Q 183.70 74.61 183.23 73.94
  Q 182.76 73.27 182.48 72.84
  Q 182.24 72.47 182.56 72.16
  L 195.37 59.91
  Q 195.51 59.77 195.42 59.61
  L 195.41 59.61
  Q 195.31 59.42 195.15 59.54
  L 180.90 69.64
  Q 180.39 70.00 180.04 69.50
  L 178.59 67.40
  A 0.67 0.67 0.0 0 1 178.76 66.47
  L 199.34 52.18
  Q 199.83 51.85 200.16 52.34
  L 202.82 56.16
  Q 203.16 56.66 202.72 57.08
  Q 190.02 68.74 190.21 69.00
  Z"
/>
<path fill="#000000" d="
  M 118.47 56.51
  Q 119.45 56.51 118.65 57.08
  L 113.44 60.84
  Q 112.95 61.19 112.64 60.68
  L 110.51 57.16
  Q 110.12 56.51 110.90 56.51
  L 118.47 56.51
  Z"
/>
<path fill="#f9cf19" d="
  M 44.65 74.69
  Q 45.42 76.52 46.21 77.08
  Q 47.83 78.24 52.70 80.99
  A 0.65 0.65 0.0 0 1 52.94 81.88
  L 51.52 84.35
  Q 51.25 84.81 50.79 84.54
  L 28.94 71.93
  A 0.61 0.61 0.0 0 1 28.72 71.10
  L 30.19 68.55
  Q 30.53 67.97 31.10 68.30
  L 38.91 72.81
  Q 40.06 73.47 39.31 72.38
  L 33.56 63.96
  Q 33.25 63.51 33.53 63.03
  L 35.04 60.40
  Q 35.46 59.68 35.88 60.40
  Q 40.80 68.75 41.75 69.00
  Q 52.28 71.82 57.33 72.97
  Q 58.08 73.14 57.70 73.81
  L 56.17 76.46
  Q 55.89 76.95 55.34 76.81
  L 45.03 74.24
  Q 44.38 74.07 44.65 74.69
  Z"
/>
<path fill="#000000" d="
  M 86.83 70.37
  C 87.44 70.11 87.97 69.57 88.46 69.61
  Q 88.97 69.65 89.12 70.14
  L 89.76 72.30
  Q 89.91 72.81 89.38 72.74
  L 84.94 72.11
  Q 84.39 72.03 84.76 71.62
  Q 85.33 70.99 86.83 70.37
  Z"
/>
<path fill="#f9cf19" d="
  M 111.83 78.31
  C 112.88 77.33 113.06 75.71 113.53 73.91
  Q 113.65 73.42 114.15 73.12
  L 117.54 71.01
  Q 118.73 70.27 118.95 71.77
  L 119.80 77.58
  Q 120.00 78.94 118.54 79.27
  L 109.68 81.33
  Q 108.83 81.53 109.40 80.86
  Q 110.53 79.54 111.83 78.31
  Z"
/>
<path fill="#ffffff" d="
  M 111.91 131.28
  Q 108.94 133.02 106.55 135.75
  Q 103.06 139.71 98.01 140.95
  Q 97.51 141.07 97.08 140.82
  Q 90.95 137.23 92.39 130.91
  C 92.98 128.31 95.12 125.09 96.12 122.18
  Q 96.28 121.70 96.01 121.29
  Q 95.12 119.92 94.94 118.33
  A 0.46 0.46 0.0 0 0 94.20 118.01
  Q 90.91 120.62 88.14 124.89
  Q 84.20 130.95 84.17 131.00
  Q 80.85 135.53 78.50 139.55
  Q 77.43 141.38 76.62 139.42
  Q 75.72 137.20 76.17 134.55
  Q 76.51 132.58 77.77 131.03
  Q 84.73 122.47 86.32 119.33
  Q 88.72 114.62 92.18 110.15
  Q 93.72 108.16 96.81 108.22
  A 0.78 0.78 0.0 0 1 97.56 109.11
  L 97.05 112.73
  Q 96.96 113.36 97.42 113.80
  Q 101.11 117.41 102.91 121.66
  A 1.18 1.14 -43.0 0 1 102.86 122.67
  Q 101.07 126.01 99.48 128.01
  C 97.77 130.15 98.32 132.43 100.15 134.09
  A 0.75 0.75 0.0 0 0 101.04 134.19
  Q 102.77 133.19 103.98 132.72
  Q 104.92 132.36 106.29 130.51
  Q 108.79 127.13 113.50 124.52
  Q 114.45 123.99 115.76 121.80
  Q 117.13 119.51 119.91 113.52
  Q 120.39 112.49 121.38 112.30
  L 124.87 111.66
  A 1.90 1.89 -1.5 0 1 127.10 113.77
  Q 126.95 114.88 126.32 116.13
  Q 121.11 126.42 119.04 130.79
  Q 118.30 132.36 118.10 133.76
  Q 118.03 134.28 118.56 134.29
  Q 120.97 134.34 121.26 134.21
  Q 121.81 133.95 128.27 131.00
  Q 131.60 129.48 134.26 126.93
  Q 134.62 126.58 134.55 126.08
  C 133.77 120.93 135.50 117.34 137.84 111.15
  Q 144.30 94.07 156.92 80.66
  C 157.87 79.66 159.83 77.62 161.46 78.04
  C 164.74 78.88 164.96 81.43 164.92 84.48
  Q 164.90 85.93 163.84 88.21
  Q 159.85 96.81 154.85 103.86
  Q 153.35 105.97 152.37 107.76
  C 151.06 110.15 150.52 111.37 149.06 112.99
  Q 146.29 116.08 141.58 122.15
  Q 139.96 124.24 139.96 126.34
  Q 139.95 130.68 140.69 133.07
  A 2.21 2.21 0.0 0 0 143.16 134.60
  C 145.88 134.16 148.80 129.05 150.02 126.79
  Q 151.28 124.46 151.38 121.95
  Q 151.47 119.74 153.84 117.92
  Q 154.07 117.75 154.89 117.73
  L 167.27 117.40
  A 1.90 1.04 -62.8 0 0 168.49 116.57
  Q 172.10 111.70 178.03 109.61
  Q 178.68 109.38 181.69 109.74
  Q 182.27 109.81 182.68 110.22
  Q 185.25 112.82 184.53 117.60
  Q 183.48 124.71 177.29 127.44
  C 174.27 128.77 170.98 130.48 168.51 131.32
  Q 168.05 131.47 168.08 131.96
  L 168.26 134.75
  Q 168.30 135.37 168.90 135.51
  C 175.28 136.98 183.29 132.33 187.78 128.02
  Q 188.71 127.13 192.59 123.14
  A 1.16 1.13 12.2 0 1 193.07 122.84
  Q 194.69 122.33 195.39 123.09
  Q 196.31 124.09 195.28 124.97
  Q 191.73 127.97 189.35 130.34
  Q 186.28 133.37 183.09 135.52
  Q 177.40 139.34 173.06 141.29
  C 169.70 142.80 167.33 141.74 164.65 139.50
  Q 161.25 136.66 161.28 132.22
  Q 161.33 125.78 164.90 120.40
  Q 165.48 119.54 164.48 119.83
  L 156.95 122.05
  A 1.04 1.03 79.3 0 0 156.22 123.13
  Q 157.15 134.14 147.54 139.31
  Q 146.62 139.80 141.58 141.14
  Q 141.10 141.26 140.67 141.01
  Q 136.67 138.70 135.73 135.86
  Q 134.96 133.52 134.76 130.85
  A 0.36 0.36 0.0 0 0 134.15 130.61
  Q 128.40 135.99 121.47 139.97
  Q 120.67 140.44 119.07 141.03
  Q 118.60 141.20 118.12 141.08
  Q 111.17 139.32 112.42 131.63
  Q 112.53 130.91 111.91 131.28
  Z
  M 141.8006 115.6015
  A 13.81 1.41 119.4 0 0 149.8084 104.2622
  A 13.81 1.41 119.4 0 0 155.3594 91.5385
  A 13.81 1.41 119.4 0 0 147.3516 102.8778
  A 13.81 1.41 119.4 0 0 141.8006 115.6015
  Z
  M 177.62 115.76
  C 175.12 118.08 171.57 122.47 169.34 125.11
  Q 168.86 125.67 168.94 126.38
  A 0.72 0.72 0.0 0 0 169.87 126.99
  Q 176.48 124.93 179.31 119.09
  Q 180.04 117.58 179.70 116.35
  A 1.27 1.27 0.0 0 0 177.62 115.76
  Z"
/>
<path fill="#ffffff" d="
  M 75.43 88.92
  A 0.37 0.37 0.0 0 0 75.08 88.39
  Q 72.17 88.51 69.09 88.38
  C 66.89 88.28 64.78 89.21 62.84 90.03
  Q 61.07 90.77 59.76 89.36
  L 58.31 87.78
  Q 56.68 86.01 58.96 85.26
  Q 63.68 83.70 68.91 82.60
  C 71.81 82.00 75.63 82.52 78.38 81.93
  Q 91.17 79.22 94.14 78.88
  Q 97.91 78.43 101.79 79.42
  A 0.77 0.77 0.0 0 1 102.31 80.46
  Q 101.35 82.76 99.48 84.08
  C 97.68 85.34 95.02 84.30 92.79 84.91
  Q 88.33 86.14 84.86 86.86
  Q 84.35 86.97 84.09 87.41
  C 82.14 90.65 79.80 93.55 78.63 96.71
  Q 77.88 98.73 76.28 101.79
  Q 75.58 103.11 74.16 106.97
  Q 73.30 109.31 68.88 118.38
  Q 68.00 120.18 65.92 126.28
  Q 64.98 129.04 63.58 131.87
  C 61.78 135.51 60.90 136.76 60.34 138.82
  C 59.88 140.55 58.08 141.29 56.66 140.22
  Q 54.71 138.76 53.67 136.57
  Q 53.45 136.11 53.66 135.64
  L 75.43 88.92
  Z"
/>
<path fill="#f9cf19" d="
  M 90.22 95.02
  L 93.11 101.22
  Q 93.34 101.70 93.00 102.11
  L 81.73 116.03
  Q 81.31 116.54 81.59 117.14
  L 82.44 118.96
  Q 82.89 119.92 82.27 120.78
  Q 79.09 125.24 76.00 129.05
  Q 73.57 132.04 73.42 134.31
  C 73.22 137.28 73.54 142.19 76.71 143.09
  C 78.48 143.59 79.60 142.86 80.56 141.24
  Q 83.30 136.66 86.17 132.63
  Q 87.25 131.12 87.55 132.95
  Q 87.80 134.46 89.43 135.72
  Q 89.80 136.00 89.96 136.44
  Q 91.51 140.71 95.47 142.93
  C 98.83 144.81 103.87 141.62 106.57 139.48
  A 0.35 0.35 0.0 0 1 107.13 139.71
  Q 108.34 149.78 108.53 155.72
  Q 108.67 160.35 109.79 163.67
  Q 112.69 172.22 114.85 178.19
  Q 115.06 178.75 115.62 178.61
  L 124.60 176.44
  Q 125.09 176.32 125.34 175.91
  L 134.26 161.22
  A 2.46 2.45 62.1 0 0 134.61 160.07
  Q 134.80 155.20 135.09 149.82
  C 135.23 147.28 136.55 145.71 138.10 143.37
  Q 138.40 142.91 138.91 143.13
  C 140.12 143.66 140.94 143.94 142.43 143.68
  Q 152.90 141.83 157.57 132.51
  Q 158.57 130.51 158.67 132.74
  Q 158.94 138.99 164.44 142.69
  Q 169.33 145.98 173.92 143.83
  Q 181.07 140.47 188.46 134.93
  Q 189.34 134.26 189.07 135.33
  Q 181.84 163.79 158.43 179.12
  C 143.83 188.67 126.01 192.38 108.80 189.68
  C 89.49 186.65 72.81 176.03 61.46 159.97
  A 0.86 0.84 -52.2 0 1 61.37 159.17
  L 65.24 149.50
  A 1.01 1.01 0.0 0 0 64.94 148.34
  L 59.40 143.86
  Q 59.01 143.54 59.46 143.31
  Q 62.06 141.98 62.42 140.91
  Q 63.72 137.02 65.37 134.09
  C 68.48 128.56 69.39 123.35 72.29 117.53
  Q 75.38 111.34 77.52 105.94
  Q 77.57 105.81 81.19 97.53
  C 82.40 94.77 84.30 92.01 85.73 89.94
  Q 86.01 89.54 86.49 89.39
  C 91.15 87.98 94.34 87.00 97.82 87.48
  Q 98.44 87.57 97.96 87.97
  L 90.42 94.17
  Q 89.99 94.52 90.22 95.02
  Z"
/>
<path fill="#f9cf19" d="
  M 125.95 89.43
  Q 126.09 89.08 126.43 89.24
  L 134.82 93.15
  Q 135.37 93.41 135.16 93.98
  Q 134.87 94.81 134.26 95.54
  Q 133.89 95.98 132.66 95.88
  Q 125.14 95.26 124.20 95.17
  Q 123.67 95.12 123.87 94.62
  L 125.95 89.43
  Z"
/>
<path fill="#f9cf19" d="
  M 56.43 89.68
  C 58.67 92.78 61.11 93.78 64.87 92.11
  Q 67.75 90.82 70.57 91.13
  Q 71.14 91.19 70.93 91.72
  Q 66.74 102.76 61.11 112.72
  C 60.15 114.42 60.03 116.45 59.16 117.98
  Q 55.57 124.26 53.40 130.35
  C 52.88 131.83 51.77 133.14 51.07 134.52
  Q 50.63 135.37 50.43 134.43
  Q 45.52 111.28 55.44 89.78
  A 0.58 0.58 0.0 0 1 56.43 89.68
  Z"
/>
<ellipse fill="#000000" cx="0.00" cy="0.00" transform="translate(148.58,103.57) rotate(119.4)" rx="13.81" ry="1.41"/>
<path fill="#f9cf19" d="
  M 111.41 100.37
  A 0.35 0.35 0.0 0 0 112.00 100.68
  L 114.22 98.64
  A 1.68 1.67 -34.0 0 0 114.60 96.71
  Q 114.02 95.47 113.94 94.83
  Q 113.82 94.03 114.57 94.77
  Q 114.94 95.14 118.41 99.25
  Q 118.75 99.65 119.26 99.77
  Q 120.85 100.12 121.71 99.89
  Q 123.00 99.53 122.53 100.55
  Q 121.61 102.55 121.64 104.70
  Q 121.66 105.58 120.78 105.46
  L 107.69 103.60
  Q 107.14 103.53 106.90 103.02
  L 105.89 100.84
  Q 105.69 100.42 105.22 100.45
  L 96.64 100.99
  Q 96.11 101.02 96.50 100.66
  L 103.63 94.10
  Q 104.09 93.67 104.61 94.03
  L 111.06 98.54
  Q 111.61 98.93 111.52 99.59
  L 111.41 100.37
  Z"
/>
<path fill="#ffffff" d="
  M 131.29 103.33
  Q 131.40 103.93 131.26 104.48
  Q 131.14 104.96 130.64 105.40
  Q 129.66 106.27 128.46 107.14
  A 1.30 1.29 -58.8 0 1 127.53 107.37
  C 124.75 107.01 123.58 104.73 124.75 102.16
  Q 125.96 99.51 130.17 98.82
  A 1.10 1.10 0.0 0 1 131.44 100.01
  C 131.35 101.03 131.07 102.14 131.29 103.33
  Z"
/>
<circle fill="#f9cf19" cx="210.68" cy="115.90" r="4.36"/>
<path fill="#f9cf19" d="
  M 155.06 114.84
  Q 154.22 114.96 153.66 114.83
  Q 153.32 114.76 153.43 114.43
  Q 153.50 114.23 153.73 114.22
  Q 154.74 114.17 155.16 114.50
  Q 155.51 114.78 155.06 114.84
  Z"
/>
<path fill="#000000" d="
  M 169.34 125.11
  C 171.57 122.47 175.12 118.08 177.62 115.76
  A 1.27 1.27 0.0 0 1 179.70 116.35
  Q 180.04 117.58 179.31 119.09
  Q 176.48 124.93 169.87 126.99
  A 0.72 0.72 0.0 0 1 168.94 126.38
  Q 168.86 125.67 169.34 125.11
  Z"
/>
<circle fill="#f9cf19" cx="30.48" cy="121.09" r="4.37"/>
<path fill="#f9cf19" d="
  M 183.28 126.54
  Q 185.47 124.16 186.47 121.04
  A 0.31 0.31 0.0 0 1 187.05 121.01
  L 188.07 123.20
  Q 188.28 123.66 187.95 124.04
  Q 183.33 129.25 176.55 132.04
  Q 174.47 132.89 173.32 132.85
  Q 172.74 132.83 173.22 132.50
  C 176.34 130.33 180.27 129.80 183.28 126.54
  Z"
/>
<path fill="#f9cf19" d="
  M 145.85 123.81
  Q 147.31 122.87 148.37 122.35
  A 0.29 0.29 0.0 0 1 148.77 122.70
  Q 147.54 126.42 145.45 129.02
  A 1.54 1.54 0.0 0 1 142.77 128.47
  C 141.95 125.55 143.95 125.05 145.85 123.81
  Z"
/>
<path fill="#f9cf19" d="
  M 159.01 127.03
  Q 158.79 126.14 158.98 124.69
  Q 159.02 124.43 159.18 124.37
  Q 159.29 124.33 159.43 124.33
  Q 159.66 124.32 159.67 124.54
  Q 159.71 125.91 159.21 127.04
  Q 159.09 127.32 159.01 127.03
  Z"
/>
<path fill="#f9cf19" d="
  M 205.24 170.00
  A 1.52 1.52 0.0 0 0 206.86 169.17
  Q 207.87 167.15 205.67 165.85
  Q 198.46 161.60 192.85 158.40
  Q 191.12 157.41 190.09 158.99
  Q 190.07 159.03 190.05 159.06
  Q 188.92 160.76 190.54 161.75
  L 193.95 163.83
  Q 194.51 164.17 194.18 164.74
  L 192.89 166.98
  Q 192.58 167.52 192.02 167.25
  C 188.17 165.34 183.86 162.81 186.36 157.66
  Q 188.35 153.54 192.07 153.95
  Q 193.72 154.13 197.50 156.31
  Q 202.80 159.36 208.08 162.43
  C 212.87 165.22 211.79 170.76 207.72 173.42
  C 205.38 174.95 201.75 173.19 199.64 171.67
  Q 199.12 171.30 199.44 170.75
  L 200.73 168.51
  Q 201.11 167.85 201.73 168.28
  Q 203.86 169.77 205.24 170.00
  Z"
/>
<path fill="#f9cf19" d="
  M 55.45 166.36
  L 51.75 161.23
  A 0.46 0.46 0.0 0 1 51.85 160.59
  L 54.20 158.90
  A 0.46 0.46 0.0 0 1 54.84 159.00
  L 60.95 167.49
  A 0.46 0.46 0.0 0 1 60.85 168.13
  L 40.21 183.00
  A 0.46 0.46 0.0 0 1 39.57 182.90
  L 33.46 174.41
  A 0.46 0.46 0.0 0 1 33.56 173.77
  L 35.91 172.09
  A 0.46 0.46 0.0 0 1 36.55 172.19
  L 40.25 177.34
  A 0.46 0.46 0.0 0 0 40.89 177.44
  L 45.77 173.93
  A 0.46 0.46 0.0 0 0 45.87 173.29
  L 43.05 169.37
  A 0.46 0.46 0.0 0 1 43.15 168.73
  L 45.45 167.08
  A 0.46 0.46 0.0 0 1 46.09 167.18
  L 48.89 171.08
  A 0.46 0.46 0.0 0 0 49.53 171.18
  L 55.35 167.00
  A 0.46 0.46 0.0 0 0 55.45 166.36
  Z"
/>
<path fill="#f9cf19" d="
  M 173.06 179.40
  Q 171.48 180.76 173.45 183.06
  Q 183.09 194.25 186.12 197.73
  Q 186.50 198.17 186.05 198.56
  L 183.85 200.46
  A 0.63 0.59 48.7 0 1 183.00 200.38
  Q 182.47 199.76 169.74 185.04
  C 167.30 182.21 167.77 178.89 170.55 176.49
  C 173.32 174.10 176.68 174.11 179.12 176.93
  Q 191.83 191.67 192.37 192.28
  A 0.63 0.59 49.6 0 1 192.33 193.14
  L 190.13 195.04
  Q 189.68 195.43 189.30 194.99
  Q 186.29 191.48 176.62 180.32
  Q 174.63 178.03 173.06 179.40
  Z"
/>
<path fill="#f9cf19" d="
  M 65.49 190.28
  Q 65.07 187.34 65.68 186.48
  Q 68.73 182.18 71.00 178.45
  Q 71.26 178.03 71.67 178.31
  L 74.32 180.16
  A 0.62 0.62 0.0 0 1 74.47 181.03
  L 69.55 188.07
  A 1.95 1.94 41.1 0 0 69.72 190.50
  L 70.64 191.50
  Q 71.43 192.37 72.11 191.41
  L 77.89 183.14
  Q 78.13 182.79 78.48 183.03
  L 81.15 184.90
  Q 81.52 185.16 81.26 185.52
  L 66.68 206.38
  A 0.46 0.45 33.9 0 1 66.06 206.50
  Q 62.84 204.46 60.12 202.16
  C 56.65 199.23 59.01 195.65 61.41 192.66
  Q 63.06 190.61 65.05 190.74
  Q 65.56 190.77 65.49 190.28
  Z
  M 65.48 200.88
  L 69.18 195.71
  A 0.55 0.55 0.0 0 0 69.05 194.94
  L 68.00 194.19
  A 2.31 2.14 -54.5 0 0 64.91 194.83
  L 63.27 197.14
  A 2.31 2.14 -54.5 0 0 63.67 200.26
  L 64.72 201.01
  A 0.55 0.55 0.0 0 0 65.48 200.88
  Z"
/>
<path fill="#f9cf19" d="
  M 144.23 192.08
  L 153.34 188.40
  A 0.60 0.60 0.0 0 1 154.12 188.74
  L 163.52 212.06
  A 0.60 0.60 0.0 0 1 163.18 212.84
  L 160.45 213.95
  A 0.60 0.60 0.0 0 1 159.67 213.61
  L 151.68 193.81
  A 0.60 0.60 0.0 0 0 150.90 193.47
  L 145.64 195.60
  A 0.60 0.60 0.0 0 1 144.86 195.26
  L 143.89 192.86
  A 0.60 0.60 0.0 0 1 144.23 192.08
  Z"
/>
<path fill="#f9cf19" d="
  M 100.35 192.41
  C 103.87 193.38 105.73 196.17 104.74 199.76
  Q 99.60 218.49 99.39 219.27
  A 0.62 0.59 -74.2 0 1 98.66 219.71
  L 95.86 218.94
  Q 95.29 218.78 95.44 218.22
  Q 96.67 213.79 100.55 199.57
  Q 101.34 196.65 99.34 196.10
  Q 97.33 195.55 96.52 198.47
  Q 92.60 212.67 91.40 217.12
  Q 91.25 217.68 90.68 217.52
  L 87.88 216.75
  A 0.62 0.59 -75.1 0 1 87.47 216.00
  Q 87.69 215.22 92.82 196.49
  C 93.80 192.90 96.82 191.44 100.35 192.41
  Z"
/>
<path fill="#000000" d="
  M 65.48 200.88
  A 0.55 0.55 0.0 0 1 64.72 201.01
  L 63.67 200.26
  A 2.31 2.14 -54.5 0 1 63.27 197.14
  L 64.91 194.83
  A 2.31 2.14 -54.5 0 1 68.00 194.19
  L 69.05 194.94
  A 0.55 0.55 0.0 0 1 69.18 195.71
  L 65.48 200.88
  Z"
/>
<path fill="#f9cf19" d="
  M 127.11 221.83
  Q 124.20 221.97 121.37 222.13
  Q 120.63 222.17 120.59 221.43
  L 120.44 219.06
  Q 120.39 218.30 121.16 218.25
  L 124.23 218.05
  Q 124.76 218.02 124.72 217.49
  L 123.39 196.31
  Q 123.35 195.74 123.91 195.62
  Q 124.60 195.48 125.45 195.42
  Q 126.31 195.37 127.01 195.43
  Q 127.58 195.48 127.61 196.05
  L 128.93 217.23
  Q 128.96 217.76 129.49 217.72
  L 132.56 217.54
  Q 133.33 217.49 133.37 218.25
  L 133.52 220.62
  Q 133.57 221.36 132.83 221.41
  Q 130.00 221.61 127.11 221.83
  Z"
/>
</svg>
